<?xml version="1.0" standalone="no"?>
<!DOCTYPE svg PUBLIC "-//W3C//DTD SVG 20010904//EN"
 "http://www.w3.org/TR/2001/REC-SVG-20010904/DTD/svg10.dtd">
<svg version="1.0" xmlns="http://www.w3.org/2000/svg"
 width="240.000000pt" height="240.000000pt" viewBox="0 0 240.000000 240.000000"
 preserveAspectRatio="xMidYMid meet">
<metadata>
Created by potrace 1.11, written by Peter Selinger 2001-2013
</metadata>
<g transform="translate(0.000000,240.000000) scale(0.100000,-0.100000)"
fill="#000000" stroke="none">
<path d="M1040 2390 c-25 -4 -63 -11 -84 -14 -60 -10 -207 -61 -287 -101 -341
-168 -583 -491 -654 -875 -13 -69 -12 -305 1 -392 15 -102 61 -245 109 -341
163 -325 474 -566 830 -642 108 -24 334 -28 445 -9 402 70 743 340 903 714 34
80 68 192 82 270 11 57 14 312 5 360 -5 25 -11 63 -14 84 -10 61 -63 211 -102
290 -61 121 -124 207 -229 311 -172 173 -355 274 -590 327 -97 22 -333 32
-415 18z"/>
</g>
</svg>
